# Blender v2.80 (sub 60) OBJ File: 'pear.blend'
# www.blender.org
mtllib pear.mtl
o Circle
v 0.572744 -0.351964 -0.260295
v 0.426119 -0.319693 -0.256024
v 0.317275 -0.260044 -0.261433
v 0.199692 -0.157037 -0.269195
v 0.122278 -0.026869 -0.286932
v 0.092331 0.060481 -0.286086
v 0.069567 0.184655 -0.291442
v 0.078557 0.313435 -0.297629
v 0.131808 0.439102 -0.307054
v 0.198432 0.565877 -0.314697
v 0.237679 0.699471 -0.313475
v 0.246107 0.822560 -0.297374
v 0.259786 0.955466 -0.268384
v 0.285057 1.018833 -0.259892
v 0.345097 1.066738 -0.255281
v 0.448586 1.110039 -0.189976
v 0.444100 1.038392 -0.152168
v 0.507340 1.059150 -0.169304
v 0.504196 1.123527 -0.185747
v 0.598707 1.132315 -0.221223
v 0.677235 1.122182 -0.257737
v 0.780250 1.072539 -0.297609
v 0.840826 0.989333 -0.322085
v 0.869173 0.913851 -0.351123
v 0.894317 0.730690 -0.339575
v 0.935787 0.595219 -0.360703
v 1.115294 0.308219 -0.359154
v 1.163694 0.081470 -0.345876
v 1.133694 -0.076651 -0.337722
v 1.031599 -0.234730 -0.303032
v 0.899761 -0.304942 -0.291471
v 0.716753 -0.357872 -0.262560
v 0.585840 -0.350644 -0.060239
v 0.439215 -0.318373 -0.055968
v 0.330371 -0.258724 -0.061378
v 0.212787 -0.155717 -0.069139
v 0.135374 -0.025549 -0.086876
v 0.105427 0.061801 -0.086030
v 0.082663 0.185975 -0.091386
v 0.091653 0.314755 -0.097574
v 0.144904 0.440422 -0.106998
v 0.211528 0.567197 -0.114641
v 0.250775 0.700790 -0.113419
v 0.259202 0.823880 -0.097318
v 0.272882 0.956786 -0.068328
v 0.298153 1.020153 -0.059836
v 0.358193 1.068058 -0.055225
v 0.461682 1.111359 0.010080
v 0.462895 1.055339 0.037199
v 0.515168 1.056320 0.033445
v 0.517292 1.124847 0.014309
v 0.611803 1.133634 -0.021167
v 0.690331 1.123502 -0.057681
v 0.793346 1.073858 -0.097553
v 0.853922 0.990653 -0.122029
v 0.882269 0.915170 -0.151067
v 0.907412 0.732010 -0.139519
v 0.948883 0.596539 -0.160648
v 1.128389 0.309539 -0.159098
v 1.176789 0.082790 -0.145820
v 1.146789 -0.075332 -0.137667
v 1.044695 -0.233410 -0.102976
v 0.912856 -0.303622 -0.091415
v 0.729849 -0.356552 -0.062504
v 0.495945 1.034984 -0.156254
v 0.500432 1.106632 -0.194062
v 0.514740 1.051932 0.033113
v 0.513527 1.107952 0.005994
vt 0.000000 0.000000
vt 0.000000 0.000000
vt 0.000000 0.000000
vt 0.000000 0.000000
vt 0.000000 0.000000
vt 0.000000 0.000000
vt 0.000000 0.000000
vt 0.000000 0.000000
vt 0.000000 0.000000
vt 0.000000 0.000000
vt 0.000000 0.000000
vt 0.000000 0.000000
vt 0.000000 0.000000
vt 0.000000 0.000000
vt 0.000000 0.000000
vt 0.000000 0.000000
vt 0.000000 0.000000
vt 0.000000 0.000000
vt 0.000000 0.000000
vt 0.000000 0.000000
vt 0.000000 0.000000
vt 0.000000 0.000000
vt 0.000000 0.000000
vt 0.000000 0.000000
vt 0.000000 0.000000
vt 0.000000 0.000000
vt 0.000000 0.000000
vt 0.000000 0.000000
vt 0.000000 0.000000
vt 0.000000 0.000000
vt 0.000000 0.000000
vt 0.000000 0.000000
vt 0.000000 0.000000
vt 0.000000 0.000000
vt 0.000000 0.000000
vt 0.000000 0.000000
vt 0.000000 0.000000
vt 0.000000 0.000000
vt 0.000000 0.000000
vt 0.000000 0.000000
vt 0.000000 0.000000
vt 0.000000 0.000000
vt 0.000000 0.000000
vt 0.000000 0.000000
vt 0.000000 0.000000
vt 0.000000 0.000000
vt 0.000000 0.000000
vt 0.000000 0.000000
vt 0.000000 0.000000
vt 0.000000 0.000000
vt 0.000000 0.000000
vt 0.000000 0.000000
vt 0.000000 0.000000
vt 0.000000 0.000000
vt 0.000000 0.000000
vt 0.000000 0.000000
vt 0.000000 0.000000
vt 0.000000 0.000000
vt 0.000000 0.000000
vt 0.000000 0.000000
vt 0.000000 0.000000
vt 0.000000 0.000000
vt 0.000000 0.000000
vt 0.000000 0.000000
vt 0.000000 0.000000
vt 0.000000 0.000000
vt 0.000000 0.000000
vt 0.000000 0.000000
vn -0.3094 -0.6991 -0.6446
vn -0.4677 -0.5982 -0.6507
vn -0.6233 -0.4706 -0.6245
vn -0.6979 -0.3000 -0.6503
vn -0.7486 -0.1868 -0.6362
vn -0.7740 -0.0406 -0.6318
vn -0.7615 0.1733 -0.6245
vn -0.6888 0.3033 -0.6584
vn -0.7141 0.2677 -0.6468
vn -0.7538 0.1237 -0.6453
vn -0.7504 0.0465 -0.6593
vn -0.7697 0.1530 -0.6197
vn -0.6646 0.4317 -0.6098
vn -0.4344 0.5920 -0.6789
vn -0.2443 0.6813 -0.6901
vn -0.2529 -0.2341 -0.9387
vn -0.7011 0.4201 -0.5761
vn -0.5462 0.6294 -0.5527
vn -0.0172 0.7332 -0.6798
vn 0.1799 0.6891 -0.7019
vn 0.4483 0.5545 -0.7011
vn 0.6169 0.3488 -0.7055
vn 0.6449 0.1682 -0.7455
vn 0.6938 0.1614 -0.7018
vn 0.6062 0.2998 -0.7367
vn 0.6390 0.2749 -0.7184
vn 0.7051 0.0061 -0.7090
vn 0.6392 -0.2739 -0.7185
vn 0.4822 -0.5668 -0.6680
vn 0.2276 -0.6736 -0.7031
vn 0.0488 -0.7556 -0.6532
vn -0.1395 -0.7224 -0.6772
vn -0.2080 -0.6805 0.7026
vn -0.0466 -0.7171 0.6954
vn 0.1302 -0.7185 0.6832
vn 0.3180 -0.6803 0.6603
vn 0.5361 -0.5521 0.6385
vn 0.7412 -0.2887 0.6060
vn 0.7853 0.0059 0.6190
vn 0.7356 0.2787 0.6175
vn 0.7293 0.3184 0.6055
vn 0.7411 0.1584 0.6524
vn 0.8047 0.2130 0.5541
vn 0.6655 0.3726 0.6467
vn 0.5000 0.6124 0.6123
vn 0.2267 0.7298 0.6450
vn 0.0389 0.7262 0.6863
vn -0.6276 0.4439 0.6395
vn -0.5403 0.5819 0.6078
vn -0.0417 0.2228 0.9740
vn -0.0090 0.7368 0.6760
vn -0.3601 0.7075 0.6081
vn -0.5522 0.4637 0.6928
vn -0.6604 0.1833 0.7281
vn -0.6781 0.0597 0.7325
vn -0.6892 0.1278 0.7132
vn -0.6351 0.2804 0.7197
vn -0.6020 0.3137 0.7342
vn -0.6750 0.1766 0.7164
vn -0.6873 -0.0365 0.7255
vn -0.6491 -0.1770 0.7398
vn -0.6333 -0.3097 0.7093
vn -0.5158 -0.4688 0.7171
vn -0.3708 -0.5953 0.7128
vn 0.5936 -0.4514 0.6662
vn 0.6720 0.6378 0.3763
vn 0.5150 -0.7409 -0.4310
vn 0.5324 0.3973 -0.7474
usemtl None
s 1
f 2/1/1 3/2/2 4/3/3 5/4/4 6/5/5 7/6/6 8/7/7 9/8/8 10/9/9 11/10/10 12/11/11 13/12/12 14/13/13 15/14/14 16/15/15 17/16/16 18/17/17 19/18/18 20/19/19 21/20/20 22/21/21 23/22/22 24/23/23 25/24/24 26/25/25 27/26/26 28/27/27 29/28/28 30/29/29 31/30/30 32/31/31 1/32/32
f 34/33/33 33/34/34 64/35/35 63/36/36 62/37/37 61/38/38 60/39/39 59/40/40 58/41/41 57/42/42 56/43/43 55/44/44 54/45/45 53/46/46 52/47/47 51/48/48 50/49/49 49/50/50 48/51/51 47/52/52 46/53/53 45/54/54 44/55/55 43/56/56 42/57/57 41/58/58 40/59/59 39/60/60 38/61/61 37/62/62 36/63/63 35/64/64
f 20/19/19 19/18/18 51/48/48 52/47/47
f 7/6/6 6/5/5 38/61/61 39/60/60
f 21/20/20 20/19/19 52/47/47 53/46/46
f 8/7/7 7/6/6 39/60/60 40/59/59
f 22/21/21 21/20/20 53/46/46 54/45/45
f 9/8/8 8/7/7 40/59/59 41/58/58
f 23/22/22 22/21/21 54/45/45 55/44/44
f 10/9/9 9/8/8 41/58/58 42/57/57
f 24/23/23 23/22/22 55/44/44 56/43/43
f 11/10/10 10/9/9 42/57/57 43/56/56
f 25/24/24 24/23/23 56/43/43 57/42/42
f 12/11/11 11/10/10 43/56/56 44/55/55
f 26/25/25 25/24/24 57/42/42 58/41/41
f 13/12/12 12/11/11 44/55/55 45/54/54
f 27/26/26 26/25/25 58/41/41 59/40/40
f 14/13/13 13/12/12 45/54/54 46/53/53
f 28/27/27 27/26/26 59/40/40 60/39/39
f 15/14/14 14/13/13 46/53/53 47/52/52
f 2/1/1 1/32/32 33/34/34 34/33/33
f 29/28/28 28/27/27 60/39/39 61/38/38
f 16/15/15 15/14/14 47/52/52 48/51/51
f 3/2/2 2/1/1 34/33/33 35/64/64
f 30/29/29 29/28/28 61/38/38 62/37/37
f 48/51/51 49/50/50 67/65/65 68/66/66
f 4/3/3 3/2/2 35/64/64 36/63/63
f 31/30/30 30/29/29 62/37/37 63/36/36
f 18/17/17 17/16/16 49/50/50 50/49/49
f 5/4/4 4/3/3 36/63/63 37/62/62
f 32/31/31 31/30/30 63/36/36 64/35/35
f 19/18/18 18/17/17 50/49/49 51/48/48
f 6/5/5 5/4/4 37/62/62 38/61/61
f 1/32/32 32/31/31 64/35/35 33/34/34
f 65/67/67 66/68/68 68/66/66 67/65/65
f 16/15/15 48/51/51 68/66/66 66/68/68
f 17/16/16 16/15/15 66/68/68 65/67/67
f 49/50/50 17/16/16 65/67/67 67/65/65
o Circle.001
v 0.475947 1.030822 -0.151536
v 0.442900 1.036764 -0.147849
v 0.442394 1.047514 -0.156976
v 0.445240 1.075465 -0.170923
v 0.447354 1.111520 -0.183484
v 0.443026 1.132893 -0.185346
v 0.423774 1.163774 -0.188628
v 0.408486 1.184670 -0.184983
v 0.378254 1.208561 -0.180117
v 0.331015 1.227554 -0.170000
v 0.299199 1.240677 -0.158162
v 0.274448 1.253005 -0.147131
v 0.255436 1.282367 -0.147246
v 0.252922 1.310630 -0.150138
v 0.261665 1.332409 -0.152737
v 0.276676 1.349907 -0.156133
v 0.300048 1.358484 -0.158279
v 0.314124 1.356149 -0.156376
v 0.333322 1.350567 -0.156303
v 0.358460 1.341920 -0.158213
v 0.390439 1.329643 -0.161732
v 0.411740 1.315877 -0.165910
v 0.437383 1.294729 -0.168716
v 0.461128 1.262644 -0.167054
v 0.479470 1.234456 -0.168262
v 0.494397 1.211678 -0.172819
v 0.507103 1.183701 -0.174365
v 0.519054 1.157239 -0.176181
v 0.523950 1.129881 -0.175667
v 0.529340 1.102906 -0.173798
v 0.527941 1.052909 -0.156321
v 0.510114 1.044278 -0.157546
v 0.489002 1.032141 0.017998
v 0.455954 1.038084 0.021684
v 0.455449 1.048834 0.012557
v 0.458294 1.076784 -0.001390
v 0.460409 1.112839 -0.013950
v 0.456080 1.134212 -0.015812
v 0.436828 1.165094 -0.019094
v 0.421541 1.185990 -0.015450
v 0.391309 1.209881 -0.010584
v 0.344070 1.228874 -0.000467
v 0.312254 1.241997 0.011371
v 0.287503 1.254325 0.022402
v 0.268491 1.283687 0.022287
v 0.265977 1.311950 0.019396
v 0.274720 1.333729 0.016796
v 0.289731 1.351227 0.013400
v 0.313103 1.359804 0.011255
v 0.327178 1.357469 0.013157
v 0.346377 1.351886 0.013230
v 0.371515 1.343240 0.011320
v 0.403494 1.330962 0.007801
v 0.424795 1.317197 0.003623
v 0.450438 1.296049 0.000818
v 0.474183 1.263964 0.002479
v 0.492524 1.235775 0.001272
v 0.507452 1.212998 -0.003286
v 0.520157 1.185020 -0.004832
v 0.532109 1.158559 -0.006648
v 0.537004 1.131201 -0.006134
v 0.542394 1.104226 -0.004265
v 0.540995 1.054228 0.013212
v 0.523169 1.045598 0.011987
vt 0.000000 0.000000
vt 0.000000 0.000000
vt 0.000000 0.000000
vt 0.000000 0.000000
vt 0.000000 0.000000
vt 0.000000 0.000000
vt 0.000000 0.000000
vt 0.000000 0.000000
vt 0.000000 0.000000
vt 0.000000 0.000000
vt 0.000000 0.000000
vt 0.000000 0.000000
vt 0.000000 0.000000
vt 0.000000 0.000000
vt 0.000000 0.000000
vt 0.000000 0.000000
vt 0.000000 0.000000
vt 0.000000 0.000000
vt 0.000000 0.000000
vt 0.000000 0.000000
vt 0.000000 0.000000
vt 0.000000 0.000000
vt 0.000000 0.000000
vt 0.000000 0.000000
vt 0.000000 0.000000
vt 0.000000 0.000000
vt 0.000000 0.000000
vt 0.000000 0.000000
vt 0.000000 0.000000
vt 0.000000 0.000000
vt 0.000000 0.000000
vt 0.000000 0.000000
vt 0.000000 0.000000
vt 0.000000 0.000000
vt 0.000000 0.000000
vt 0.000000 0.000000
vt 0.000000 0.000000
vt 0.000000 0.000000
vt 0.000000 0.000000
vt 0.000000 0.000000
vt 0.000000 0.000000
vt 0.000000 0.000000
vt 0.000000 0.000000
vt 0.000000 0.000000
vt 0.000000 0.000000
vt 0.000000 0.000000
vt 0.000000 0.000000
vt 0.000000 0.000000
vt 0.000000 0.000000
vt 0.000000 0.000000
vt 0.000000 0.000000
vt 0.000000 0.000000
vt 0.000000 0.000000
vt 0.000000 0.000000
vt 0.000000 0.000000
vt 0.000000 0.000000
vt 0.000000 0.000000
vt 0.000000 0.000000
vt 0.000000 0.000000
vt 0.000000 0.000000
vt 0.000000 0.000000
vt 0.000000 0.000000
vt 0.000000 0.000000
vt 0.000000 0.000000
vn -0.7722 -0.4569 -0.4415
vn -0.7338 0.0865 -0.6738
vn -0.7328 0.0884 -0.6746
vn -0.7478 -0.0433 -0.6624
vn -0.7221 -0.2785 -0.6332
vn -0.6132 -0.3999 -0.6811
vn -0.5547 -0.5179 -0.6512
vn -0.3847 -0.6374 -0.6676
vn -0.2731 -0.6614 -0.6985
vn -0.2943 -0.6570 -0.6940
vn -0.5375 -0.6230 -0.5683
vn -0.7544 -0.2344 -0.6131
vn -0.7676 0.1400 -0.6254
vn -0.6475 0.4146 -0.6394
vn -0.4279 0.6362 -0.6420
vn -0.0860 0.7387 -0.6685
vn 0.1525 0.7197 -0.6773
vn 0.2073 0.6880 -0.6954
vn 0.2311 0.6692 -0.7062
vn 0.3184 0.6514 -0.6886
vn 0.4009 0.5718 -0.7157
vn 0.5000 0.4941 -0.7112
vn 0.5698 0.4111 -0.7115
vn 0.5854 0.4029 -0.7035
vn 0.5975 0.3459 -0.7234
vn 0.6156 0.2958 -0.7304
vn 0.6630 0.2189 -0.7159
vn 0.6638 0.1354 -0.7355
vn 0.6820 0.0701 -0.7280
vn 0.6940 -0.4257 -0.5806
vn 0.2761 -0.6361 -0.7205
vn 0.0778 -0.7559 -0.6500
vn -0.4340 -0.5878 0.6827
vn 0.0709 -0.7550 0.6519
vn 0.3102 -0.7052 0.6375
vn 0.6299 -0.4647 0.6223
vn 0.7994 0.0322 0.5999
vn 0.7374 0.1244 0.6638
vn 0.7381 0.2173 0.6388
vn 0.6721 0.2928 0.6800
vn 0.6719 0.3650 0.6445
vn 0.6165 0.3921 0.6828
vn 0.6092 0.4058 0.6813
vn 0.5666 0.5194 0.6396
vn 0.4451 0.5991 0.6655
vn 0.3354 0.6524 0.6796
vn 0.2524 0.6704 0.6977
vn 0.2251 0.6785 0.6992
vn 0.1724 0.6948 0.6982
vn -0.0542 0.7776 0.6265
vn -0.4275 0.6098 0.6673
vn -0.6107 0.3628 0.7038
vn -0.7174 0.0924 0.6905
vn -0.6742 -0.2502 0.6949
vn -0.4767 -0.5301 0.7012
vn -0.2799 -0.6543 0.7025
vn -0.2590 -0.6797 0.6861
vn -0.3469 -0.6420 0.6837
vn -0.4959 -0.5096 0.7031
vn -0.5991 -0.4203 0.6815
vn -0.6610 -0.2613 0.7034
vn -0.7346 -0.0374 0.6774
vn -0.6995 0.0732 0.7108
vn -0.7303 0.0328 0.6823
usemtl None
s 1
f 70/69/69 71/70/70 72/71/71 73/72/72 74/73/73 75/74/74 76/75/75 77/76/76 78/77/77 79/78/78 80/79/79 81/80/80 82/81/81 83/82/82 84/83/83 85/84/84 86/85/85 87/86/86 88/87/87 89/88/88 90/89/89 91/90/90 92/91/91 93/92/92 94/93/93 95/94/94 96/95/95 97/96/96 98/97/97 99/98/98 100/99/99 69/100/100
f 102/101/101 101/102/102 132/103/103 131/104/104 130/105/105 129/106/106 128/107/107 127/108/108 126/109/109 125/110/110 124/111/111 123/112/112 122/113/113 121/114/114 120/115/115 119/116/116 118/117/117 117/118/118 116/119/119 115/120/120 114/121/121 113/122/122 112/123/123 111/124/124 110/125/125 109/126/126 108/127/127 107/128/128 106/129/129 105/130/130 104/131/131 103/132/132
f 95/94/94 94/93/93 126/109/109 127/108/108
f 82/81/81 81/80/80 113/122/122 114/121/121
f 96/95/95 95/94/94 127/108/108 128/107/107
f 83/82/82 82/81/81 114/121/121 115/120/120
f 70/69/69 69/100/100 101/102/102 102/101/101
f 97/96/96 96/95/95 128/107/107 129/106/106
f 84/83/83 83/82/82 115/120/120 116/119/119
f 71/70/70 70/69/69 102/101/101 103/132/132
f 98/97/97 97/96/96 129/106/106 130/105/105
f 85/84/84 84/83/83 116/119/119 117/118/118
f 72/71/71 71/70/70 103/132/132 104/131/131
f 99/98/98 98/97/97 130/105/105 131/104/104
f 86/85/85 85/84/84 117/118/118 118/117/117
f 73/72/72 72/71/71 104/131/131 105/130/130
f 100/99/99 99/98/98 131/104/104 132/103/103
f 87/86/86 86/85/85 118/117/117 119/116/116
f 74/73/73 73/72/72 105/130/130 106/129/129
f 69/100/100 100/99/99 132/103/103 101/102/102
f 88/87/87 87/86/86 119/116/116 120/115/115
f 75/74/74 74/73/73 106/129/129 107/128/128
f 89/88/88 88/87/87 120/115/115 121/114/114
f 76/75/75 75/74/74 107/128/128 108/127/127
f 90/89/89 89/88/88 121/114/114 122/113/113
f 77/76/76 76/75/75 108/127/127 109/126/126
f 91/90/90 90/89/89 122/113/113 123/112/112
f 78/77/77 77/76/76 109/126/126 110/125/125
f 92/91/91 91/90/90 123/112/112 124/111/111
f 79/78/78 78/77/77 110/125/125 111/124/124
f 93/92/92 92/91/91 124/111/111 125/110/110
f 80/79/79 79/78/78 111/124/124 112/123/123
f 94/93/93 93/92/92 125/110/110 126/109/109
f 81/80/80 80/79/79 112/123/123 113/122/122
