# Blender v2.80 (sub 60) OBJ File: 'tshirt.blend'
# www.blender.org
mtllib tshirt.mtl
o Cube
v -0.011231 0.050287 -0.826487
v -0.032387 0.105236 0.747901
v -0.003426 2.309181 -0.743323
v 0.012940 2.370747 0.694080
v -0.019668 2.080453 -0.832927
v -0.018006 1.786076 -0.832927
v -0.012897 0.390755 -0.810139
v -0.040758 0.474959 0.734177
v -0.009222 2.178843 0.692026
v -0.017838 1.756307 0.686944
v -0.016117 1.451360 0.663757
v -0.014018 1.079547 0.618250
v -0.012012 0.724200 0.618011
v -0.011610 0.652932 -0.721504
v -0.013444 0.977917 -0.720043
v -0.015626 1.364398 -0.764803
v -0.034261 2.414906 -0.652698
v -0.020984 2.313479 -0.384481
v -0.020716 2.266124 -0.126671
v -0.028074 2.263930 0.139271
v -0.026995 2.365881 0.387553
v -0.020416 2.480917 0.558179
v -0.080980 0.050266 -0.826625
v -0.102136 0.105215 0.747763
v -0.073175 2.309160 -0.743460
v -0.056809 2.370726 0.693942
v -0.089417 2.080432 -0.833065
v -0.087755 1.786055 -0.833065
v -0.082646 0.390733 -0.810277
v -0.110507 0.474938 0.734039
v -0.078971 2.178822 0.691888
v -0.087587 1.756287 0.686806
v -0.085866 1.451339 0.663619
v -0.083767 1.079526 0.618112
v -0.081761 0.724179 0.617873
v -0.081359 0.652911 -0.721642
v -0.083193 0.977896 -0.720181
v -0.085375 1.364376 -0.764941
v -0.104010 2.414885 -0.652836
v -0.090732 2.313458 -0.384619
v -0.090465 2.266103 -0.126808
v -0.097823 2.263909 0.139133
v -0.096743 2.365860 0.387415
v -0.090165 2.480896 0.558042
v 0.029526 2.178854 0.692103
v 0.051689 2.370759 0.694156
v 0.027518 0.050299 -0.826410
v 0.006361 0.105248 0.747977
v 0.025851 0.390766 -0.810062
v 0.035323 2.309193 -0.743246
v 0.019080 2.080464 -0.832850
v 0.020742 1.786088 -0.832850
v -0.002010 0.474971 0.734254
v 0.020910 1.756319 0.687021
v 0.022632 1.451372 0.663834
v 0.024731 1.079559 0.618326
v 0.026737 0.724212 0.618088
v 0.027139 0.652943 -0.721428
v 0.025304 0.977928 -0.719966
v 0.023123 1.364409 -0.764726
v 0.004487 2.414917 -0.652622
v 0.017765 2.313490 -0.384405
v 0.018032 2.266136 -0.126594
v 0.010674 2.263942 0.139347
v 0.011754 2.365893 0.387630
v 0.018333 2.480929 0.558256
vt 0.401975 0.000000
vt 0.440459 0.016722
vt 0.440459 0.016722
vt 0.401975 0.000000
vt 0.375000 0.000000
vt 0.375000 0.250000
vt 0.403625 0.250000
vt 0.447258 0.217747
vt 0.481158 0.217783
vt 0.516629 0.224612
vt 0.545721 0.228092
vt 0.573488 0.250000
vt 0.625000 0.250000
vt 0.614095 0.209208
vt 0.606935 0.180965
vt 0.597005 0.145750
vt 0.594357 0.105990
vt 0.598874 0.067300
vt 0.610691 0.025061
vt 0.625000 0.000000
vt 0.576644 0.000000
vt 0.548561 0.000000
vt 0.508333 0.010224
vt 0.471463 0.016941
vt 0.440459 0.016722
vt 0.401975 0.000000
vt 0.516629 0.224612
vt 0.545721 0.228092
vt 0.573488 0.250000
vt 0.625000 0.250000
vt 0.610691 0.025061
vt 0.625000 0.000000
vt 0.481158 0.217783
vt 0.375000 0.000000
vt 0.375000 0.250000
vt 0.598874 0.067300
vt 0.447258 0.217747
vt 0.594357 0.105990
vt 0.403625 0.250000
vt 0.576644 0.000000
vt 0.597005 0.145750
vt 0.548561 0.000000
vt 0.606935 0.180965
vt 0.471463 0.016941
vt 0.614095 0.209208
vt 0.508333 0.010224
vt 0.375000 0.000000
vt 0.471463 0.016941
vt 0.508333 0.010224
vt 0.548561 0.000000
vt 0.576644 0.000000
vt 0.625000 0.000000
vt 0.610691 0.025061
vt 0.598874 0.067300
vt 0.594357 0.105990
vt 0.597005 0.145750
vt 0.606935 0.180965
vt 0.614095 0.209208
vt 0.625000 0.250000
vt 0.573488 0.250000
vt 0.545721 0.228092
vt 0.516629 0.224612
vt 0.481158 0.217783
vt 0.447258 0.217747
vt 0.403625 0.250000
vt 0.375000 0.250000
vn 0.0019 0.1859 -0.9825
vn 0.0019 0.1645 -0.9864
vn 0.6754 0.1217 -0.7273
vn 0.6774 0.1372 -0.7227
vn -0.5698 -0.5782 -0.5839
vn -0.5770 -0.5506 0.6033
vn -0.6791 0.1683 0.7145
vn -0.6484 0.1696 0.7421
vn -0.6952 -0.0444 0.7175
vn -0.7033 -0.0704 0.7073
vn -0.7037 -0.0316 0.7097
vn -0.7085 -0.0081 0.7056
vn -0.5790 0.3548 0.7340
vn -0.6139 0.7893 -0.0101
vn -0.6874 0.6401 -0.3430
vn -0.6687 0.7296 -0.1432
vn -0.6849 0.7255 0.0673
vn -0.6821 0.7044 0.1960
vn -0.6271 0.7617 -0.1629
vn -0.6238 0.4068 -0.6673
vn -0.6739 0.1339 -0.7266
vn -0.6881 -0.0579 -0.7233
vn -0.7006 -0.0980 -0.7067
vn -0.6924 -0.0402 -0.7204
vn -0.6701 0.1217 -0.7322
vn -0.6770 0.1363 -0.7233
vn -0.0019 -0.0987 0.9951
vn -0.0020 -0.0439 0.9990
vn -0.0020 -0.0112 0.9999
vn -0.0019 0.4254 0.9050
vn 0.0002 0.9689 -0.2475
vn 0.0015 0.5151 -0.8571
vn -0.0020 -0.0612 0.9981
vn 0.0016 -0.7024 -0.7117
vn -0.0012 -0.6812 0.7321
vn -0.0008 0.9633 0.2683
vn -0.0020 0.2161 0.9763
vn -0.0005 0.9955 0.0948
vn -0.0020 0.2345 0.9721
vn 0.0019 0.1856 -0.9826
vn 0.0001 0.9819 -0.1895
vn 0.0020 -0.0800 -0.9968
vn 0.0006 0.8816 -0.4719
vn 0.0020 -0.0554 -0.9984
vn -0.0004 0.9990 0.0441
vn 0.0020 -0.1373 -0.9905
vn 0.5764 -0.5731 -0.5825
vn 0.6953 -0.0395 -0.7176
vn 0.7035 -0.0975 -0.7039
vn 0.6909 -0.0579 -0.7206
vn 0.6597 0.1426 -0.7379
vn 0.6934 0.3664 -0.6204
vn 0.5628 0.7936 -0.2312
vn 0.6914 0.6959 0.1940
vn 0.6908 0.7196 0.0703
vn 0.6614 0.7369 -0.1399
vn 0.6820 0.6450 -0.3448
vn 0.5752 0.8142 0.0781
vn 0.6503 0.3141 0.6916
vn 0.6840 -0.0079 0.7294
vn 0.6950 -0.0312 0.7183
vn 0.7006 -0.0701 0.7101
vn 0.6923 -0.0437 0.7203
vn 0.6713 0.1549 0.7248
vn 0.6463 0.1825 0.7409
vn 0.5776 -0.5618 0.5922
usemtl Material
s 1
f 7/1/1 14/2/2 58/3/3 49/4/4
f 23/5/5 24/6/6 30/7/7 35/8/8 34/9/9 33/10/10 32/11/11 31/12/12 26/13/13 44/14/14 43/15/15 42/16/16 41/17/17 40/18/18 39/19/19 25/20/20 27/21/21 28/22/22 38/23/23 37/24/24 36/25/25 29/26/26
f 11/27/27 10/28/28 32/11/11 33/10/10
f 9/29/29 4/30/30 26/13/13 31/12/12
f 17/31/31 3/32/32 25/20/20 39/19/19
f 12/33/33 11/27/27 33/10/10 34/9/9
f 1/34/34 2/35/35 24/6/6 23/5/5
f 18/36/36 17/31/31 39/19/19 40/18/18
f 13/37/37 12/33/33 34/9/9 35/8/8
f 7/1/1 1/34/34 23/5/5 29/26/26
f 19/38/38 18/36/36 40/18/18 41/17/17
f 8/39/39 13/37/37 35/8/8 30/7/7
f 3/32/32 5/40/40 27/21/21 25/20/20
f 20/41/41 19/38/38 41/17/17 42/16/16
f 14/2/2 7/1/1 29/26/26 36/25/25
f 5/40/40 6/42/42 28/22/22 27/21/21
f 21/43/43 20/41/41 42/16/16 43/15/15
f 15/44/44 14/2/2 36/25/25 37/24/24
f 2/35/35 8/39/39 30/7/7 24/6/6
f 22/45/45 21/43/43 43/15/15 44/14/14
f 16/46/46 15/44/44 37/24/24 38/23/23
f 10/28/28 9/29/29 31/12/12 32/11/11
f 4/30/30 22/45/45 44/14/14 26/13/13
f 6/42/42 16/46/46 38/23/23 28/22/22
f 47/47/47 49/4/4 58/3/3 59/48/48 60/49/49 52/50/50 51/51/51 50/52/52 61/53/53 62/54/54 63/55/55 64/56/56 65/57/57 66/58/58 46/59/59 45/60/60 54/61/61 55/62/62 56/63/63 57/64/64 53/65/65 48/66/66
f 6/42/42 5/40/40 51/51/51 52/50/50
f 20/41/41 21/43/43 65/57/57 64/56/56
f 14/2/2 15/44/44 59/48/48 58/3/3
f 8/39/39 2/35/35 48/66/66 53/65/65
f 21/43/43 22/45/45 66/58/58 65/57/57
f 15/44/44 16/46/46 60/49/49 59/48/48
f 9/29/29 10/28/28 54/61/61 45/60/60
f 22/45/45 4/30/30 46/59/59 66/58/58
f 16/46/46 6/42/42 52/50/50 60/49/49
f 10/28/28 11/27/27 55/62/62 54/61/61
f 4/30/30 9/29/29 45/60/60 46/59/59
f 3/32/32 17/31/31 61/53/53 50/52/52
f 11/27/27 12/33/33 56/63/63 55/62/62
f 2/35/35 1/34/34 47/47/47 48/66/66
f 17/31/31 18/36/36 62/54/54 61/53/53
f 12/33/33 13/37/37 57/64/64 56/63/63
f 1/34/34 7/1/1 49/4/4 47/47/47
f 18/36/36 19/38/38 63/55/55 62/54/54
f 13/37/37 8/39/39 53/65/65 57/64/64
f 5/40/40 3/32/32 50/52/52 51/51/51
f 19/38/38 20/41/41 64/56/56 63/55/55
o Plane
v -0.070159 2.016577 -0.339812
v -0.063257 1.518748 -0.975900
v -0.065850 2.381669 -0.665926
v -0.060205 1.920522 -1.290126
v -0.029867 2.016444 -0.338025
v -0.022964 1.518615 -0.974112
v -0.025558 2.381536 -0.664139
v -0.019912 1.920389 -1.288339
vt 0.000000 0.000000
vt 0.000000 1.000000
vt 1.000000 1.000000
vt 1.000000 0.000000
vt 0.000000 0.000000
vt 1.000000 0.000000
vt 1.000000 1.000000
vt 0.000000 1.000000
vn -0.5953 -0.0717 0.8003
vn -0.5824 0.8102 0.0655
vn -0.5549 0.1113 -0.8245
vn -0.5757 -0.8091 -0.1176
vn 0.5524 -0.0735 0.8303
vn 0.5782 -0.8119 -0.0804
vn 0.5967 0.1093 -0.7949
vn 0.5817 0.8071 0.1011
usemtl None
s 1
f 67/67/67 69/68/68 70/69/69 68/70/70
f 71/71/71 72/72/72 74/73/73 73/74/74
f 68/70/70 70/69/69 74/73/73 72/72/72
f 69/68/68 67/67/67 71/71/71 73/74/74
f 70/69/69 69/68/68 73/74/74 74/73/73
f 67/67/67 68/70/70 72/72/72 71/71/71
o Plane.001
v 0.046799 1.995754 1.186098
v -0.022268 2.437993 0.538105
v 0.039865 1.651084 0.869844
v -0.024130 2.059952 0.234580
v 0.001028 2.029666 1.188564
v -0.068039 2.471905 0.540570
v -0.005906 1.684996 0.872309
v -0.069901 2.093863 0.237046
vt 0.000000 0.000000
vt 0.000000 1.000000
vt 1.000000 1.000000
vt 1.000000 0.000000
vt 0.000000 0.000000
vt 1.000000 0.000000
vt 1.000000 1.000000
vt 0.000000 1.000000
vn 0.5606 -0.1481 0.8147
vn 0.3812 -0.9213 0.0766
vn 0.4038 -0.3613 -0.8404
vn 0.7851 0.5947 -0.1733
vn -0.4066 0.3315 0.8513
vn -0.3802 0.9205 -0.0899
vn -0.5721 0.1083 -0.8130
vn -0.7924 -0.5902 0.1541
usemtl None
s 1
f 75/75/75 77/76/76 78/77/77 76/78/78
f 79/79/79 80/80/80 82/81/81 81/82/82
f 76/78/78 78/77/77 82/81/81 80/80/80
f 77/76/76 75/75/75 79/79/79 81/82/82
f 78/77/77 77/76/76 81/82/82 82/81/81
f 75/75/75 76/78/78 80/80/80 79/79/79
